# xmcd CD database file
#
# Track frame offsets:
#	150
#	14828
#	29459
#	45671
#	59302
#	70347
#	82067
#	94087
#	108109
#	121293
#	135309
#	155492
#	172848
#	188068
#	201306
#	216099
#	228037
#	241877
#	254618
#	271172
#	282362
#	292789
#	310177
#	324046
#	336709
#
# Disc length: 4730 seconds
#
# Revision: 2
# Processed by: cddbd v1.5.1PL2 Copyright (c) Steve Scherf et al.
# Submitted via: CDex 1.51
#
DISCID=64127819
DTITLE=Boate Azul - Vol.3
DYEAR=1900
DGENRE=Sertanejo
TTITLE0=Joaquim and Manoel - Boate Azul
TTITLE1=Barrerito - Dama De Vestido Longo
TTITLE2=Chitãozinho and Xororó - Amor A Treis
TTITLE3=Teodoro and Sampaio - Casaco Verde
TTITLE4=João Mineiro and Marciano - Esconda O Que Houve
TTITLE5=MIlionário and José Rico - Nasci Pra Te Amar
TTITLE6=Ronaldo Viola and João Carvalho - Cópia Da Chave
TTITLE7=Trio Parada Dura - Camisola Preta
TTITLE8=Duduca and Dalvan - Dama De Vermelho
TTITLE9=Chitãozinho and Xororó - Matriz Ou Filial
TTITLE10=Joaquim and Manoel - Som De Cristal
TTITLE11=Chico Rey and Paraná - Quem Será Seu Outro Amor
TTITLE12=Trio Parada Dura - Blusa Vermelha
TTITLE13=Teodoro and Sampaio - Vestido De Seda
TTITLE14=João Mineiro and Marciano - Viciado Em Você
TTITLE15=Canário and Passarinho - Mulher Coração De Pedra
TTITLE16=Lourenço and Lourival - A Cruz Que Carrego
TTITLE17=Chico Rey and Lourival - Minha Serenata
TTITLE18=Juliano and Jardel - Fim De Noite
TTITLE19=Teodoro and Sampaio - Amigos De Bar
TTITLE20=Peão Carreiro and Zé Paulo - Porteiro De Hotel
TTITLE21=Matogrosso and Mathias - Na Hora Do Adeus
TTITLE22=João Mineiro and Marciano - Benza Deus
TTITLE23=Pedro and Paulo - Casa Dos Prazeres
TTITLE24=Chrystian and Raulf - Mande A Solidão Pra Outro Lugar
EXTD=
EXTT0=
EXTT1=
EXTT2=
EXTT3=
EXTT4=
EXTT5=
EXTT6=
EXTT7=
EXTT8=
EXTT9=
EXTT10=
EXTT11=
EXTT12=
EXTT13=
EXTT14=
EXTT15=
EXTT16=
EXTT17=
EXTT18=
EXTT19=
EXTT20=
EXTT21=
EXTT22=
EXTT23=
EXTT24=
PLAYORDER=
